<?xml version="1.0" encoding="UTF-8" standalone="no"?>
<svg width="15px" height="15px" viewBox="0 0 15 15" version="1.1" xmlns="http://www.w3.org/2000/svg" xmlns:xlink="http://www.w3.org/1999/xlink">
    <!-- Generator: Sketch 41.2 (35397) - http://www.bohemiancoding.com/sketch -->
    <title>fa-times</title>
    <desc>Created with Sketch.</desc>
    <defs></defs>
    <g id="Type,-Palette,-Reference" stroke="none" stroke-width="1" fill="none" fill-rule="evenodd">
        <g id="Colors,-Type" transform="translate(-1093.000000, -1472.000000)" fill="#0A0B09">
            <g id="fa-times" transform="translate(1093.000000, 1472.000000)">
                <path d="M0.398,12.943 L2.104,14.626 C2.329,14.873 2.62,14.985 2.957,14.985 C3.294,14.985 3.563,14.873 3.81,14.626 L7.491,10.945 L11.172,14.626 C11.397,14.873 11.688,14.985 12.025,14.985 C12.362,14.985 12.631,14.873 12.878,14.626 L14.584,12.943 C14.808,12.696 14.921,12.404 14.921,12.09 C14.921,11.753 14.808,11.461 14.584,11.237 L10.903,7.556 L14.584,3.875 C14.808,3.628 14.921,3.336 14.921,3.022 C14.921,2.685 14.808,2.393 14.584,2.169 L12.878,0.463 C12.631,0.216 12.362,0.104 12.025,0.104 C11.688,0.104 11.397,0.216 11.172,0.463 L7.491,4.144 L3.81,0.463 C3.563,0.216 3.294,0.104 2.957,0.104 C2.62,0.104 2.329,0.216 2.104,0.463 L0.398,2.169 C0.174,2.393 0.039,2.685 0.039,3.022 C0.039,3.336 0.174,3.628 0.398,3.875 L4.079,7.556 L0.398,11.237 C0.174,11.461 0.039,11.753 0.039,12.09 C0.039,12.404 0.174,12.696 0.398,12.943" id="Fill-209"></path>
            </g>
        </g>
    </g>
</svg>