<?xml version="1.0" encoding="UTF-8" standalone="no"?>
<svg width="680px" height="475px" viewBox="0 0 680 475" version="1.1" xmlns="http://www.w3.org/2000/svg" xmlns:xlink="http://www.w3.org/1999/xlink">
    <!-- Generator: Sketch 41.2 (35397) - http://www.bohemiancoding.com/sketch -->
    <title>Artboard</title>
    <desc>Created with Sketch.</desc>
    <defs></defs>
    <g id="Page-1" stroke="none" stroke-width="1" fill="none" fill-rule="evenodd">
        <g id="Web-Idea-1" transform="translate(-720.000000, -468.000000)" fill="#FFFFFF">
            <g id="Artboard" transform="translate(720.000000, 468.000000)">
                <path d="M59.8188881,400.901091 L59.8188881,425.913637 L41.0195684,425.913637 L41.0195684,400.901091 L18.4203861,400.901091 L18.4203861,469.935719 L41.0195684,469.935719 L41.0195684,444.422921 L59.8188881,444.422921 L59.8188881,469.935719 L82.4180704,469.935719 L82.4180704,400.901091 L59.8188881,400.901091 Z M140.749292,400.901091 L115.750197,400.901091 L91.7510653,469.935719 L115.250215,469.935719 L117.850121,460.230851 L137.549408,460.230851 L140.24931,469.935719 L164.748424,469.935719 L140.749292,400.901091 L140.749292,400.901091 Z M122.649947,442.922169 L127.749763,424.412884 L132.849578,442.922169 L122.649947,442.922169 L122.649947,442.922169 Z M234.079248,400.901091 L211.280073,400.901091 L211.280073,441.421416 C211.280073,445.423423 210.580099,447.424427 209.080153,448.92518 C207.580207,450.425932 205.58028,451.426434 202.580388,451.426434 C199.580497,451.426434 197.580569,450.425932 196.080623,448.92518 C194.580678,447.424427 193.780707,445.523473 193.780707,441.421416 L193.780707,400.901091 L171.081527,400.901091 L171.081527,440.420914 C171.081527,451.426434 173.581437,457.929696 178.581256,462.932206 C183.581075,467.934715 191.580786,471.036271 202.580388,471.036271 C213.57999,471.036271 221.579701,467.934715 226.57952,462.932206 C231.579339,457.929696 234.079248,451.426434 234.079248,440.420914 L234.079248,400.901091 L234.079248,400.901091 Z M299.910198,447.224327 C299.910198,439.920663 296.910306,435.218304 293.410433,432.216799 C289.91056,429.215293 284.310762,427.21429 281.910849,426.413888 C279.510936,425.613487 275.311088,424.412884 273.711146,423.912633 C272.111204,423.412383 268.91132,422.712031 268.91132,420.711028 C268.91132,418.609974 270.911247,417.909622 274.511117,417.909622 C278.110987,417.909622 285.710712,419.910626 290.910524,424.512935 L299.510212,408.504905 C293.510429,403.502396 284.11077,400.20074 274.911102,400.20074 C265.711435,400.20074 258.811685,402.701994 254.611837,406.203751 C250.511985,409.605457 246.612126,415.408368 246.612126,422.912132 C246.612126,430.415896 249.412025,434.618003 252.911899,437.619509 C256.411772,440.621014 260.411627,441.921667 262.411555,442.722068 C264.411482,443.42242 269.911283,445.223323 272.411193,445.923674 C274.911102,446.724076 277.411012,447.524477 277.411012,449.525481 C277.411012,451.526485 275.311088,452.426936 272.311197,452.426936 C269.311305,452.426936 260.311631,450.325882 253.911862,444.923172 L243.912224,461.931704 C253.311884,468.935217 262.511551,471.136321 270.511262,471.136321 C278.510972,471.136321 285.410723,469.435468 290.910524,465.23336 C296.410325,460.931202 299.910198,454.42794 299.910198,447.224327 L299.910198,447.224327 L299.910198,447.224327 Z" id="HAUS-Copy-5"></path>
                <path d="M133.565788,24.5227342 C131.317194,21.5229964 128.281639,19.4232116 124.45903,18.2233163 C120.636421,17.0234213 117.076201,16.4234827 113.778264,16.4234827 C106.582764,16.4234827 100.661557,18.0358175 96.0144637,21.2605358 C91.3673705,24.4852538 87.6947226,28.7223202 84.9964105,33.9718613 C82.2980981,39.2214026 80.3868223,45.1082999 79.2625256,51.6327296 C78.1382289,58.1571594 77.576089,64.7189876 77.576089,71.3184108 L77.576089,119.688942 L139.63696,119.688942 L139.63696,137.687279 L77.576089,138.812175 L78.0258054,301.247168 C78.0258054,307.396631 77.9508533,312.833574 77.8009472,317.55816 C77.651041,322.282748 77.0514251,327.269737 76.0020812,332.519278 L105.008793,331.169403 L105.008793,350.067656 L11.2429113,350.067656 L11.2429113,336.343925 C18.2885046,336.343925 23.647572,334.956566 27.3202749,332.181808 C30.9929775,329.407053 33.6537733,325.544948 35.3027418,320.595381 C36.9517106,315.645814 37.8511343,309.721419 38.0010407,302.822021 C38.1509469,295.922626 38.2258989,288.348401 38.2258989,280.099121 L37.7761826,139.712092 L0,140.38703 L0,119.688942 L37.7761826,119.688942 L37.7761826,110.014836 C37.7761826,92.91633 39.2377463,77.5804002 42.1609179,64.0065863 C45.0840894,50.4327727 49.8435412,38.9214513 56.4394154,29.4722772 C63.0352899,20.0231027 71.617293,12.7488477 82.1856827,7.64929318 C92.7540722,2.54973894 105.608339,0 120.748869,0 C125.695775,0 131.054842,0.637434736 136.826232,1.91232343 C142.597622,3.18721186 147.919214,5.21200459 152.791166,7.98676219 C157.663119,10.7615195 161.748003,14.2861588 165.04594,18.560785 C168.343877,22.8354116 169.992821,27.9723856 169.992821,33.9718613 C169.992821,40.121324 168.193973,45.1458095 164.596223,49.0454687 C160.998474,52.9451279 156.426402,54.8949283 150.879872,54.8949283 C146.982309,54.8949283 143.834326,54.2574936 141.435826,52.9826049 C139.037326,51.7077165 137.051098,50.0953814 135.477083,48.1455518 C133.903067,46.1957222 132.778788,44.0959371 132.104209,41.8461339 C131.429631,39.5963304 131.092347,37.5715376 131.092347,35.7716951 C131.092347,33.9718523 131.279727,32.1345404 131.654493,30.2597042 C132.029259,28.384868 132.666351,26.4725638 133.565788,24.5227342 L133.565788,24.5227342 L133.565788,24.5227342 Z M253.193707,129.813007 C241.051301,129.813007 230.670451,132.51273 222.050842,137.912258 C213.431232,143.311786 206.34827,150.511049 200.801739,159.510263 C195.255208,168.509476 191.170325,178.858417 188.546964,190.557394 C185.923606,202.256372 184.611946,214.405129 184.611946,227.004028 C184.611946,241.252783 186.07351,255.12636 188.996682,268.625181 C191.919853,282.124002 196.379497,294.085278 202.375746,304.509367 C208.371994,314.933457 215.904672,323.295098 224.973999,329.594547 C234.043326,335.893999 244.649032,339.043677 256.791437,339.043677 C268.933842,339.043677 279.164791,336.306456 287.484587,330.831934 C295.804381,325.357412 302.55006,318.120653 307.721826,309.121441 C312.893591,300.122227 316.603715,289.848279 318.85231,278.299289 C321.100902,266.750296 322.225183,254.901511 322.225183,242.752572 C322.225183,228.953777 320.950997,215.305175 318.402592,201.806355 C315.854187,188.307535 311.806778,176.233771 306.260247,165.584702 C300.713716,154.935632 293.555802,146.311515 284.786287,139.712092 C276.016773,133.112669 265.486017,129.813007 253.193707,129.813007 L253.193707,129.813007 L253.193707,129.813007 Z M253.193707,112.264628 C269.383579,112.264628 284.523881,115.226825 298.615068,121.151307 C312.706253,127.075789 324.960905,135.249952 335.379388,145.674041 C345.797872,156.09813 354.042592,168.471863 360.113793,182.795611 C366.184997,197.11936 369.220553,212.605274 369.220553,229.253819 C369.220553,247.102259 366.259947,263.825547 360.338651,279.424185 C354.417355,295.02282 346.247587,308.596431 335.829106,320.145421 C325.410623,331.694411 313.118494,340.805979 298.952356,347.480395 C284.786216,354.154814 269.533487,357.491972 253.193707,357.491972 C237.003832,357.491972 221.901005,354.604766 207.884773,348.830272 C193.86854,343.055776 181.651365,334.994101 171.232881,324.645007 C160.814398,314.295911 152.607155,301.959673 146.610905,287.635925 C140.614656,273.312177 137.616576,257.601286 137.616576,240.50278 C137.616576,222.354367 140.57718,205.443597 146.498476,189.769967 C152.419773,174.096337 160.552064,160.522727 170.895594,149.048729 C181.239124,137.574732 193.4563,128.575653 207.547485,122.051224 C221.638672,115.526794 236.853927,112.264628 253.193707,112.264628 L253.193707,112.264628 L253.193707,112.264628 Z M491.321911,365.141264 C482.777255,364.84129 474.532535,364.466329 466.587506,364.016369 C458.642475,363.566409 451.072323,362.741492 443.876823,361.541598 C435.332169,367.091111 428.773869,373.84042 424.201729,381.789726 C419.62959,389.739032 417.343554,398.213164 417.343554,407.212378 C417.343554,414.861709 419.179877,421.723506 422.852581,427.797974 C426.525282,433.872445 431.771921,439.084412 438.592656,443.434031 C445.413388,447.783652 453.658108,451.12081 463.327061,453.445605 C472.996014,455.770403 483.751625,456.932783 495.594217,456.932783 C508.785966,456.932783 520.590905,455.582922 531.009388,452.883157 C541.427872,450.183395 550.23473,446.583763 557.43023,442.084156 C564.62573,437.584549 570.097224,432.372582 573.84488,426.4481 C577.592537,420.523618 579.466335,414.261758 579.466335,407.662335 C579.466335,399.113084 577.255252,392.176294 572.833017,386.85176 C568.410785,381.527223 562.264721,377.327653 554.394645,374.252922 C546.524566,371.178193 537.230519,369.003415 526.512222,367.728525 C515.793928,366.453636 504.06394,365.591224 491.321911,365.141264 L491.321911,365.141264 L491.321911,365.141264 Z M487.274463,128.463131 C479.029619,128.463131 471.684324,130.112962 465.238355,133.412674 C458.792388,136.712386 453.358369,141.286917 448.936134,147.136406 C444.5139,152.985895 441.141061,159.885189 438.817514,167.834494 C436.493966,175.783799 435.332211,184.332924 435.332211,193.482124 C435.332211,204.581154 436.531444,214.667621 438.929944,223.741828 C441.328444,232.816035 444.851188,240.652732 449.49828,247.252155 C454.145372,253.851579 459.841724,258.951058 466.587506,262.550742 C473.333286,266.150429 480.978388,267.950245 489.523045,267.950245 C498.067699,267.950245 505.525424,266.375405 511.896438,263.225681 C518.267452,260.075956 523.589044,255.688906 527.861373,250.064397 C532.1337,244.439887 535.356636,237.76557 537.530276,230.041246 C539.703916,222.316921 540.790721,213.955277 540.790721,204.956064 C540.790721,194.906942 539.666441,185.232933 537.417846,175.933746 C535.169254,166.634558 531.796415,158.497891 527.299228,151.523501 C522.802041,144.54911 517.218116,138.962182 510.547289,134.762549 C503.876462,130.562916 496.11893,128.463131 487.274463,128.463131 L487.274463,128.463131 L487.274463,128.463131 Z M588.010949,110.464794 C584.113388,111.064742 580.665594,112.302115 577.667471,114.176951 C574.669345,116.051787 572.046025,118.414045 569.797432,121.263796 C567.54884,124.113547 565.712514,127.225729 564.288405,130.600434 C562.864296,133.975139 561.777493,137.387289 561.02796,140.836988 C568.673178,147.886372 574.706815,156.135527 579.12905,165.584702 C583.551282,175.033876 585.762368,185.082847 585.762368,195.731916 C585.762368,208.780776 583.101572,220.74205 577.779899,231.616102 C572.458228,242.490151 565.300313,251.86419 556.305939,259.738503 C547.311564,267.612815 536.930714,273.724689 525.163074,278.074308 C513.395434,282.423929 501.065832,284.598707 488.173896,284.598707 C482.477458,284.598707 477.418199,284.223745 472.995964,283.473811 C468.573732,282.723874 463.364568,282.348915 457.368319,282.348915 C451.67188,282.348915 446.462716,283.098836 441.740671,284.598707 C437.018624,286.098575 433.04617,288.160864 429.823184,290.785634 C426.600201,293.410405 424.46407,295.960145 423.414726,298.434928 C422.365383,300.909712 421.840718,303.046992 421.840718,304.846834 C421.840718,306.646679 422.140525,308.521485 422.740151,310.471316 C423.789494,314.071 426.225435,316.995702 430.048044,319.245504 C433.870653,321.495309 438.85496,323.257627 445.001116,324.532516 C451.14727,325.807406 458.45509,326.74481 466.924791,327.344756 C475.394495,327.944704 484.950873,328.469652 495.594217,328.919612 C513.283153,329.669546 529.135498,331.356874 543.151733,333.981643 C557.167966,336.606415 569.047857,340.581008 578.791762,345.905542 C588.535667,351.230076 595.99339,358.129371 601.165155,366.60363 C606.336921,375.077888 608.922764,385.539317 608.922764,397.98823 C608.922764,410.437143 605.5874,421.423517 598.916573,430.947686 C592.245746,440.471853 583.551313,448.49603 572.833017,455.020461 C562.114723,461.544891 550.047452,466.494384 536.630843,469.869088 C523.214236,473.243794 509.685399,474.931122 496.043933,474.931122 C475.356873,474.931122 457.705678,473.131306 443.08982,469.531621 C428.473962,465.931934 416.594071,461.169922 407.449791,455.245439 C398.305511,449.320957 391.634784,442.646641 387.43741,435.222291 C383.240035,427.797938 381.141377,420.26121 381.141377,412.611878 C381.141377,405.562495 382.490515,399.113155 385.188825,393.263665 C387.887138,387.414179 391.297454,382.164714 395.419876,377.515121 C399.542298,372.865528 404.114369,368.85344 409.136227,365.478734 C414.158088,362.104028 418.992489,359.366807 423.639584,357.266991 C413.745771,354.267255 405.950764,349.955195 400.254328,344.330686 C394.557892,338.706178 391.709716,330.944475 391.709716,321.045338 C391.709716,315.645811 392.833996,310.358852 395.082588,305.184303 C397.331181,300.009755 400.479167,295.247743 404.526633,290.898124 C408.574103,286.548503 413.408507,282.873881 419.02999,279.874142 C424.651474,276.874406 430.835013,274.774618 437.580793,273.574724 C430.5352,270.275014 424.164281,266.262923 418.467845,261.538337 C412.771406,256.813749 407.899527,251.489294 403.852061,245.564812 C399.804591,239.640329 396.694083,233.153494 394.520443,226.104111 C392.346803,219.054727 391.259998,211.480502 391.259998,203.38121 C391.259998,189.582415 394.070699,177.058698 399.692182,165.809681 C405.313666,154.560664 412.65896,144.961647 421.728287,137.012341 C430.797617,129.063036 441.14099,122.951162 452.758725,118.676535 C464.376457,114.401909 476.181396,112.264628 488.173896,112.264628 C498.517425,112.264628 508.710895,113.726978 518.754613,116.651722 C528.798332,119.576467 538.092379,123.888525 546.637033,129.588027 C548.885628,123.138591 551.958659,117.139205 555.856221,111.58969 C559.753785,106.040175 564.138476,101.278163 569.010429,97.3035101 C573.882382,93.3288575 579.166496,90.2166761 584.862934,87.9668726 C590.55937,85.7170694 596.480577,84.5921844 602.626734,84.5921844 C610.421857,84.5921844 616.455494,86.6169771 620.727821,90.6666234 C625.000148,94.7162694 627.136281,100.340694 627.136281,107.540064 C627.136281,109.339907 626.761521,111.3647 626.01199,113.614503 C625.262459,115.864306 624.100701,117.964092 622.526687,119.913921 C620.952671,121.863751 618.891493,123.513582 616.343085,124.863464 C613.79468,126.213346 610.721649,126.813284 607.123897,126.663298 C601.877179,126.513311 597.604915,124.900976 594.30698,121.826245 C591.009041,118.751513 588.910385,114.964401 588.010949,110.464794 L588.010949,110.464794 L588.010949,110.464794 Z M679.756446,328.019694 C679.756446,332.069341 679.006925,335.893949 677.507864,339.493634 C676.008802,343.093318 674.022574,346.242998 671.549121,348.94276 C669.075669,351.642525 666.227493,353.74231 663.00451,355.242178 C659.781524,356.742049 656.371207,357.491972 652.773459,357.491972 C649.17571,357.491972 645.765394,356.742049 642.54241,355.242178 C639.319424,353.74231 636.471249,351.642525 633.997796,348.94276 C631.524343,346.242998 629.575593,343.093318 628.151484,339.493634 C626.727375,335.893949 626.01533,332.069341 626.01533,328.019694 C626.01533,323.820062 626.76485,319.882966 628.263911,316.208286 C629.762976,312.533606 631.749201,309.346433 634.222656,306.646668 C636.696109,303.946904 639.58176,301.809624 642.879696,300.23476 C646.177634,298.659899 649.625425,297.87248 653.223174,297.87248 C656.970831,297.87248 660.456099,298.659899 663.679083,300.23476 C666.902066,301.809624 669.712767,303.946904 672.111267,306.646668 C674.509767,309.346433 676.383565,312.533606 677.732721,316.208286 C679.081878,319.882966 679.756446,323.820062 679.756446,328.019694 L679.756446,328.019694 L679.756446,328.019694 Z" id="fog.-copy-6"></path>
                <path d="M133.565788,24.5227342 C131.317194,21.5229964 128.281639,19.4232116 124.45903,18.2233163 C120.636421,17.0234213 117.076201,16.4234827 113.778264,16.4234827 C106.582764,16.4234827 100.661557,18.0358175 96.0144637,21.2605358 C91.3673705,24.4852538 87.6947226,28.7223202 84.9964105,33.9718613 C82.2980981,39.2214026 80.3868223,45.1082999 79.2625256,51.6327296 C78.1382289,58.1571594 77.576089,64.7189876 77.576089,71.3184108 L77.576089,119.688942 L139.63696,119.688942 L139.63696,137.687279 L77.576089,138.812175 L78.0258054,301.247168 C78.0258054,307.396631 77.9508533,312.833574 77.8009472,317.55816 C77.651041,322.282748 77.0514251,327.269737 76.0020812,332.519278 L105.008793,331.169403 L105.008793,350.067656 L11.2429113,350.067656 L11.2429113,336.343925 C18.2885046,336.343925 23.647572,334.956566 27.3202749,332.181808 C30.9929775,329.407053 33.6537733,325.544948 35.3027418,320.595381 C36.9517106,315.645814 37.8511343,309.721419 38.0010407,302.822021 C38.1509469,295.922626 38.2258989,288.348401 38.2258989,280.099121 L37.7761826,139.712092 L0,140.38703 L0,119.688942 L37.7761826,119.688942 L37.7761826,110.014836 C37.7761826,92.91633 39.2377463,77.5804002 42.1609179,64.0065863 C45.0840894,50.4327727 49.8435412,38.9214513 56.4394154,29.4722772 C63.0352899,20.0231027 71.617293,12.7488477 82.1856827,7.64929318 C92.7540722,2.54973894 105.608339,0 120.748869,0 C125.695775,0 131.054842,0.637434736 136.826232,1.91232343 C142.597622,3.18721186 147.919214,5.21200459 152.791166,7.98676219 C157.663119,10.7615195 161.748003,14.2861588 165.04594,18.560785 C168.343877,22.8354116 169.992821,27.9723856 169.992821,33.9718613 C169.992821,40.121324 168.193973,45.1458095 164.596223,49.0454687 C160.998474,52.9451279 156.426402,54.8949283 150.879872,54.8949283 C146.982309,54.8949283 143.834326,54.2574936 141.435826,52.9826049 C139.037326,51.7077165 137.051098,50.0953814 135.477083,48.1455518 C133.903067,46.1957222 132.778788,44.0959371 132.104209,41.8461339 C131.429631,39.5963304 131.092347,37.5715376 131.092347,35.7716951 C131.092347,33.9718523 131.279727,32.1345404 131.654493,30.2597042 C132.029259,28.384868 132.666351,26.4725638 133.565788,24.5227342 L133.565788,24.5227342 L133.565788,24.5227342 Z M253.193707,129.813007 C241.051301,129.813007 230.670451,132.51273 222.050842,137.912258 C213.431232,143.311786 206.34827,150.511049 200.801739,159.510263 C195.255208,168.509476 191.170325,178.858417 188.546964,190.557394 C185.923606,202.256372 184.611946,214.405129 184.611946,227.004028 C184.611946,241.252783 186.07351,255.12636 188.996682,268.625181 C191.919853,282.124002 196.379497,294.085278 202.375746,304.509367 C208.371994,314.933457 215.904672,323.295098 224.973999,329.594547 C234.043326,335.893999 244.649032,339.043677 256.791437,339.043677 C268.933842,339.043677 279.164791,336.306456 287.484587,330.831934 C295.804381,325.357412 302.55006,318.120653 307.721826,309.121441 C312.893591,300.122227 316.603715,289.848279 318.85231,278.299289 C321.100902,266.750296 322.225183,254.901511 322.225183,242.752572 C322.225183,228.953777 320.950997,215.305175 318.402592,201.806355 C315.854187,188.307535 311.806778,176.233771 306.260247,165.584702 C300.713716,154.935632 293.555802,146.311515 284.786287,139.712092 C276.016773,133.112669 265.486017,129.813007 253.193707,129.813007 L253.193707,129.813007 L253.193707,129.813007 Z M253.193707,112.264628 C269.383579,112.264628 284.523881,115.226825 298.615068,121.151307 C312.706253,127.075789 324.960905,135.249952 335.379388,145.674041 C345.797872,156.09813 354.042592,168.471863 360.113793,182.795611 C366.184997,197.11936 369.220553,212.605274 369.220553,229.253819 C369.220553,247.102259 366.259947,263.825547 360.338651,279.424185 C354.417355,295.02282 346.247587,308.596431 335.829106,320.145421 C325.410623,331.694411 313.118494,340.805979 298.952356,347.480395 C284.786216,354.154814 269.533487,357.491972 253.193707,357.491972 C237.003832,357.491972 221.901005,354.604766 207.884773,348.830272 C193.86854,343.055776 181.651365,334.994101 171.232881,324.645007 C160.814398,314.295911 152.607155,301.959673 146.610905,287.635925 C140.614656,273.312177 137.616576,257.601286 137.616576,240.50278 C137.616576,222.354367 140.57718,205.443597 146.498476,189.769967 C152.419773,174.096337 160.552064,160.522727 170.895594,149.048729 C181.239124,137.574732 193.4563,128.575653 207.547485,122.051224 C221.638672,115.526794 236.853927,112.264628 253.193707,112.264628 L253.193707,112.264628 L253.193707,112.264628 Z M491.321911,365.141264 C482.777255,364.84129 474.532535,364.466329 466.587506,364.016369 C458.642475,363.566409 451.072323,362.741492 443.876823,361.541598 C435.332169,367.091111 428.773869,373.84042 424.201729,381.789726 C419.62959,389.739032 417.343554,398.213164 417.343554,407.212378 C417.343554,414.861709 419.179877,421.723506 422.852581,427.797974 C426.525282,433.872445 431.771921,439.084412 438.592656,443.434031 C445.413388,447.783652 453.658108,451.12081 463.327061,453.445605 C472.996014,455.770403 483.751625,456.932783 495.594217,456.932783 C508.785966,456.932783 520.590905,455.582922 531.009388,452.883157 C541.427872,450.183395 550.23473,446.583763 557.43023,442.084156 C564.62573,437.584549 570.097224,432.372582 573.84488,426.4481 C577.592537,420.523618 579.466335,414.261758 579.466335,407.662335 C579.466335,399.113084 577.255252,392.176294 572.833017,386.85176 C568.410785,381.527223 562.264721,377.327653 554.394645,374.252922 C546.524566,371.178193 537.230519,369.003415 526.512222,367.728525 C515.793928,366.453636 504.06394,365.591224 491.321911,365.141264 L491.321911,365.141264 L491.321911,365.141264 Z M487.274463,128.463131 C479.029619,128.463131 471.684324,130.112962 465.238355,133.412674 C458.792388,136.712386 453.358369,141.286917 448.936134,147.136406 C444.5139,152.985895 441.141061,159.885189 438.817514,167.834494 C436.493966,175.783799 435.332211,184.332924 435.332211,193.482124 C435.332211,204.581154 436.531444,214.667621 438.929944,223.741828 C441.328444,232.816035 444.851188,240.652732 449.49828,247.252155 C454.145372,253.851579 459.841724,258.951058 466.587506,262.550742 C473.333286,266.150429 480.978388,267.950245 489.523045,267.950245 C498.067699,267.950245 505.525424,266.375405 511.896438,263.225681 C518.267452,260.075956 523.589044,255.688906 527.861373,250.064397 C532.1337,244.439887 535.356636,237.76557 537.530276,230.041246 C539.703916,222.316921 540.790721,213.955277 540.790721,204.956064 C540.790721,194.906942 539.666441,185.232933 537.417846,175.933746 C535.169254,166.634558 531.796415,158.497891 527.299228,151.523501 C522.802041,144.54911 517.218116,138.962182 510.547289,134.762549 C503.876462,130.562916 496.11893,128.463131 487.274463,128.463131 L487.274463,128.463131 L487.274463,128.463131 Z M588.010949,110.464794 C584.113388,111.064742 580.665594,112.302115 577.667471,114.176951 C574.669345,116.051787 572.046025,118.414045 569.797432,121.263796 C567.54884,124.113547 565.712514,127.225729 564.288405,130.600434 C562.864296,133.975139 561.777493,137.387289 561.02796,140.836988 C568.673178,147.886372 574.706815,156.135527 579.12905,165.584702 C583.551282,175.033876 585.762368,185.082847 585.762368,195.731916 C585.762368,208.780776 583.101572,220.74205 577.779899,231.616102 C572.458228,242.490151 565.300313,251.86419 556.305939,259.738503 C547.311564,267.612815 536.930714,273.724689 525.163074,278.074308 C513.395434,282.423929 501.065832,284.598707 488.173896,284.598707 C482.477458,284.598707 477.418199,284.223745 472.995964,283.473811 C468.573732,282.723874 463.364568,282.348915 457.368319,282.348915 C451.67188,282.348915 446.462716,283.098836 441.740671,284.598707 C437.018624,286.098575 433.04617,288.160864 429.823184,290.785634 C426.600201,293.410405 424.46407,295.960145 423.414726,298.434928 C422.365383,300.909712 421.840718,303.046992 421.840718,304.846834 C421.840718,306.646679 422.140525,308.521485 422.740151,310.471316 C423.789494,314.071 426.225435,316.995702 430.048044,319.245504 C433.870653,321.495309 438.85496,323.257627 445.001116,324.532516 C451.14727,325.807406 458.45509,326.74481 466.924791,327.344756 C475.394495,327.944704 484.950873,328.469652 495.594217,328.919612 C513.283153,329.669546 529.135498,331.356874 543.151733,333.981643 C557.167966,336.606415 569.047857,340.581008 578.791762,345.905542 C588.535667,351.230076 595.99339,358.129371 601.165155,366.60363 C606.336921,375.077888 608.922764,385.539317 608.922764,397.98823 C608.922764,410.437143 605.5874,421.423517 598.916573,430.947686 C592.245746,440.471853 583.551313,448.49603 572.833017,455.020461 C562.114723,461.544891 550.047452,466.494384 536.630843,469.869088 C523.214236,473.243794 509.685399,474.931122 496.043933,474.931122 C475.356873,474.931122 457.705678,473.131306 443.08982,469.531621 C428.473962,465.931934 416.594071,461.169922 407.449791,455.245439 C398.305511,449.320957 391.634784,442.646641 387.43741,435.222291 C383.240035,427.797938 381.141377,420.26121 381.141377,412.611878 C381.141377,405.562495 382.490515,399.113155 385.188825,393.263665 C387.887138,387.414179 391.297454,382.164714 395.419876,377.515121 C399.542298,372.865528 404.114369,368.85344 409.136227,365.478734 C414.158088,362.104028 418.992489,359.366807 423.639584,357.266991 C413.745771,354.267255 405.950764,349.955195 400.254328,344.330686 C394.557892,338.706178 391.709716,330.944475 391.709716,321.045338 C391.709716,315.645811 392.833996,310.358852 395.082588,305.184303 C397.331181,300.009755 400.479167,295.247743 404.526633,290.898124 C408.574103,286.548503 413.408507,282.873881 419.02999,279.874142 C424.651474,276.874406 430.835013,274.774618 437.580793,273.574724 C430.5352,270.275014 424.164281,266.262923 418.467845,261.538337 C412.771406,256.813749 407.899527,251.489294 403.852061,245.564812 C399.804591,239.640329 396.694083,233.153494 394.520443,226.104111 C392.346803,219.054727 391.259998,211.480502 391.259998,203.38121 C391.259998,189.582415 394.070699,177.058698 399.692182,165.809681 C405.313666,154.560664 412.65896,144.961647 421.728287,137.012341 C430.797617,129.063036 441.14099,122.951162 452.758725,118.676535 C464.376457,114.401909 476.181396,112.264628 488.173896,112.264628 C498.517425,112.264628 508.710895,113.726978 518.754613,116.651722 C528.798332,119.576467 538.092379,123.888525 546.637033,129.588027 C548.885628,123.138591 551.958659,117.139205 555.856221,111.58969 C559.753785,106.040175 564.138476,101.278163 569.010429,97.3035101 C573.882382,93.3288575 579.166496,90.2166761 584.862934,87.9668726 C590.55937,85.7170694 596.480577,84.5921844 602.626734,84.5921844 C610.421857,84.5921844 616.455494,86.6169771 620.727821,90.6666234 C625.000148,94.7162694 627.136281,100.340694 627.136281,107.540064 C627.136281,109.339907 626.761521,111.3647 626.01199,113.614503 C625.262459,115.864306 624.100701,117.964092 622.526687,119.913921 C620.952671,121.863751 618.891493,123.513582 616.343085,124.863464 C613.79468,126.213346 610.721649,126.813284 607.123897,126.663298 C601.877179,126.513311 597.604915,124.900976 594.30698,121.826245 C591.009041,118.751513 588.910385,114.964401 588.010949,110.464794 L588.010949,110.464794 L588.010949,110.464794 Z M679.756446,328.019694 C679.756446,332.069341 679.006925,335.893949 677.507864,339.493634 C676.008802,343.093318 674.022574,346.242998 671.549121,348.94276 C669.075669,351.642525 666.227493,353.74231 663.00451,355.242178 C659.781524,356.742049 656.371207,357.491972 652.773459,357.491972 C649.17571,357.491972 645.765394,356.742049 642.54241,355.242178 C639.319424,353.74231 636.471249,351.642525 633.997796,348.94276 C631.524343,346.242998 629.575593,343.093318 628.151484,339.493634 C626.727375,335.893949 626.01533,332.069341 626.01533,328.019694 C626.01533,323.820062 626.76485,319.882966 628.263911,316.208286 C629.762976,312.533606 631.749201,309.346433 634.222656,306.646668 C636.696109,303.946904 639.58176,301.809624 642.879696,300.23476 C646.177634,298.659899 649.625425,297.87248 653.223174,297.87248 C656.970831,297.87248 660.456099,298.659899 663.679083,300.23476 C666.902066,301.809624 669.712767,303.946904 672.111267,306.646668 C674.509767,309.346433 676.383565,312.533606 677.732721,316.208286 C679.081878,319.882966 679.756446,323.820062 679.756446,328.019694 L679.756446,328.019694 L679.756446,328.019694 Z" id="fog.-copy-6"></path>
            </g>
        </g>
    </g>
</svg>